<mxfile host="app.diagrams.net" modified="2023-07-28T12:51:13.112Z" agent="Mozilla/5.0 (Windows NT 10.0; Win64; x64) AppleWebKit/537.36 (KHTML, like Gecko) Chrome/114.0.0.0 Safari/537.36" version="21.6.5" etag="SqjVyrfZDdL6k9NPccZo" type="github">
  <diagram name="Page-1" id="pExyj-0nFsEgZTzF0z8c">
    <mxGraphModel>
      <root>
        <mxCell id="0" />
        <mxCell id="1" parent="0" />
      </root>
    </mxGraphModel>
  </diagram>
</mxfile>
